<?xml version="1.0" encoding="UTF-8"?>
<svg
  width="1200"
  height="630"
  viewBox="0 0 1200 630"
  xmlns="http://www.w3.org/2000/svg"
>
  <defs>
    <clipPath id="card-clip">
      <rect x="64" y="64" width="1072" height="502" rx="42" />
    </clipPath>
  </defs>

  <rect width="1200" height="630" fill="#f4f1e8" />

  <g stroke="#d6d4c9" stroke-width="1">
    <path d="M0 90h1200M0 180h1200M0 270h1200M0 360h1200M0 450h1200M0 540h1200" />
    <path d="M90 0v630M180 0v630M270 0v630M360 0v630M450 0v630M540 0v630M630 0v630M720 0v630M810 0v630M900 0v630M990 0v630M1080 0v630" />
  </g>

  <rect
    x="64"
    y="64"
    width="1072"
    height="502"
    rx="42"
    fill="#fffcf5"
    stroke="#b5bcb5"
  />

  <g clip-path="url(#card-clip)">
    <rect x="64" y="64" width="502" height="502" fill="#17211c" />
  </g>

  <circle cx="315" cy="280" r="132" fill="#a94f2d" />
  <circle cx="315" cy="280" r="112" fill="#0e1512" />
  <image
    href="coffee-cup.svg"
    x="220"
    y="185"
    width="190"
    height="190"
  />

  <text
    x="626"
    y="166"
    fill="#176b55"
    font-family="Consolas, monospace"
    font-size="21"
    letter-spacing="3"
  >SOFTWARE DEVELOPER</text>
  <text
    x="620"
    y="278"
    fill="#17211c"
    font-family="Arial, sans-serif"
    font-size="62"
    font-weight="700"
  >Jean Sousa Liz</text>
  <text
    x="624"
    y="358"
    fill="#526058"
    font-family="Arial, sans-serif"
    font-size="29"
  >Delphi, integrações e software</text>
  <text
    x="624"
    y="400"
    fill="#526058"
    font-family="Arial, sans-serif"
    font-size="29"
  >simples de entender e manter.</text>
  <text
    x="624"
    y="500"
    fill="#a94f2d"
    font-family="Consolas, monospace"
    font-size="20"
    letter-spacing="2"
  >JSOUSALIZ.GITHUB.IO</text>
</svg>
